<?xml version="1.0" standalone="no"?>
<!DOCTYPE svg PUBLIC "-//W3C//DTD SVG 20010904//EN"
 "http://www.w3.org/TR/2001/REC-SVG-20010904/DTD/svg10.dtd">
<svg version="1.0" xmlns="http://www.w3.org/2000/svg"
 viewBox="0 0 2600.000000 2600.000000"
 preserveAspectRatio="xMidYMid meet">
<metadata>
Created by potrace 1.15, written by Peter Selinger 2001-2017
</metadata>
<g transform="translate(0.000000,2600.000000) scale(0.100000,-0.100000)"
fill="#000000" stroke="none">
<path d="M12165 21274 c-555 -33 -1012 -99 -1510 -219 -912 -220 -1786 -606
-2580 -1138 -1738 -1168 -2948 -2965 -3380 -5021 -169 -805 -209 -1677 -115
-2516 144 -1289 585 -2506 1293 -3570 290 -435 572 -782 937 -1154 326 -332
575 -551 917 -808 987 -741 2132 -1242 3344 -1463 266 -48 374 -69 513 -100
144 -31 288 -44 364 -32 32 5 104 7 162 5 261 -8 897 -2 1040 10 1085 90 2053
358 2990 827 803 402 1568 968 2184 1615 588 618 1023 1236 1400 1990 487 975
760 2003 827 3115 15 261 7 896 -15 1135 -68 720 -206 1353 -436 1995 -39 110
-91 256 -115 325 -45 129 -291 636 -433 890 -688 1234 -1717 2290 -2926 3002
-94 55 -196 115 -226 133 -199 117 -588 301 -885 420 -741 296 -1478 467
-2325 541 -173 15 -869 27 -1025 18z m1220 -229 c935 -99 1833 -361 2654 -777
222 -112 315 -173 531 -345 400 -320 750 -683 952 -988 185 -279 298 -563 310
-778 l3 -59 -775 -419 -775 -420 -1622 545 c-893 301 -1636 546 -1651 546 -16
0 -43 -5 -61 -11 -18 -6 -34 -9 -36 -7 -2 2 -24 73 -49 158 -132 461 -334 905
-581 1275 -119 178 -237 326 -387 480 -65 67 -118 126 -118 129 0 4 19 35 42
69 165 243 539 461 1018 593 120 33 130 34 260 29 74 -2 203 -11 285 -20z
m-1920 -792 l160 -6 121 -121 c249 -249 447 -537 639 -927 135 -275 264 -618
331 -883 l25 -100 -88 -81 c-363 -337 -992 -1162 -1773 -2325 l-285 -426 -135
17 c-422 53 -760 73 -1230 73 -720 1 -1217 -63 -1665 -214 -65 -22 -122 -40
-126 -40 -4 0 -249 444 -545 988 -296 543 -551 1000 -567 1016 -24 24 -34 28
-65 23 -22 -3 -153 -69 -320 -161 -156 -87 -290 -160 -299 -163 -27 -10 148
302 314 563 426 666 984 1296 1598 1805 326 270 749 564 940 655 364 172 1002
273 1945 307 168 6 876 6 1025 0z m6559 -2370 c358 -208 786 -510 1076 -758
211 -180 447 -432 541 -578 65 -101 163 -348 197 -497 221 -970 275 -2083 146
-2990 -41 -295 -131 -706 -169 -780 -20 -39 -368 -393 -494 -504 -288 -251
-526 -413 -754 -513 -104 -46 -266 -97 -291 -91 -7 2 -90 118 -184 258 -659
990 -1266 1680 -1649 1874 l-53 26 0 1884 0 1884 768 415 c422 229 771 416
776 417 5 0 46 -21 90 -47z m-8119 -2622 c199 -15 434 -38 575 -56 97 -13 118
-19 133 -38 194 -244 841 -1281 1633 -2619 l195 -328 -62 -223 c-230 -837
-518 -2093 -690 -3007 -23 -124 -42 -226 -43 -227 -2 -2 -548 -68 -816 -98
-449 -50 -964 -98 -1385 -130 -344 -26 -852 -35 -961 -17 -45 8 -66 21 -155
94 -376 309 -786 718 -1113 1111 -506 608 -868 1265 -1012 1834 -17 66 -17 75
-3 105 9 18 49 137 89 263 261 829 723 2051 1151 3042 22 51 25 54 98 82 269
102 609 171 1041 212 288 26 965 26 1325 0z m10364 -731 c65 -400 90 -697 98
-1132 10 -566 -33 -1068 -137 -1618 -32 -166 -141 -623 -147 -616 -2 2 -22
239 -44 527 l-40 524 30 105 c98 337 164 730 203 1195 13 164 17 819 6 1065
-4 85 -5 151 -3 145 2 -5 18 -93 34 -195z m-3871 -1420 c372 -221 926 -868
1553 -1814 96 -144 159 -249 159 -264 0 -30 -54 -270 -126 -557 -303 -1211
-658 -2108 -950 -2400 -39 -38 -89 -76 -127 -95 -34 -17 -96 -60 -137 -96
-284 -244 -830 -531 -1420 -746 -422 -153 -1140 -337 -1592 -408 l-78 -13
-172 166 c-250 239 -773 762 -977 977 -316 333 -548 602 -652 756 l-51 76 12
66 c56 323 252 1265 371 1781 127 549 384 1556 409 1601 9 16 3610 1017 3665
1019 19 1 60 -17 113 -49z m-10972 -1400 c302 -38 552 -70 555 -70 4 0 19 -51
34 -112 153 -622 523 -1298 1067 -1950 305 -366 715 -775 1068 -1067 69 -57
130 -108 137 -115 7 -6 40 -209 77 -467 94 -654 208 -1351 232 -1414 7 -16 3
-16 -36 6 -189 106 -565 361 -812 551 -325 250 -735 630 -1003 928 -861 959
-1460 2074 -1775 3305 -59 229 -111 475 -100 475 4 0 254 -31 556 -70z m12009
-4035 c248 -47 458 -89 468 -93 14 -6 -5 -27 -103 -116 -1203 -1089 -2673
-1765 -4270 -1966 -91 -11 -246 -27 -345 -36 -212 -18 -875 -31 -860 -17 6 5
98 64 205 130 364 226 660 432 875 608 118 97 263 245 296 303 23 40 24 41
119 57 993 175 1892 470 2550 837 157 88 381 236 485 322 62 51 86 64 105 61
14 -3 228 -43 475 -90z"/>
</g>
</svg>
