<?xml version="1.0" standalone="no"?>
<!DOCTYPE svg PUBLIC "-//W3C//DTD SVG 20010904//EN"
 "http://www.w3.org/TR/2001/REC-SVG-20010904/DTD/svg10.dtd">
<svg version="1.0" xmlns="http://www.w3.org/2000/svg"
 viewBox="0 0 2600.000000 2600.000000"
 preserveAspectRatio="xMidYMid meet">
<metadata>
Created by potrace 1.15, written by Peter Selinger 2001-2017
</metadata>
<g transform="translate(0.000000,2600.000000) scale(0.100000,-0.100000)"
fill="#000000" stroke="none">
<path d="M6080 13480 l0 -8660 6875 0 6875 0 0 8660 0 8660 -6875 0 -6875 0 0
-8660z m2750 7215 l0 -865 1605 0 1605 0 0 290 0 290 -1375 0 -1375 0 0 575 0
575 3665 0 3665 0 0 -575 0 -575 -1375 0 -1375 0 0 -290 0 -290 1605 0 1605 0
0 865 0 865 225 0 225 0 0 -1155 0 -1155 -1830 0 -1830 0 0 290 0 290 -915 0
-915 0 0 -290 0 -290 -1830 0 -1830 0 0 1155 0 1155 225 0 225 0 0 -865z
m-918 -1567 l3 -453 5038 -3 5037 -2 0 455 0 455 180 0 180 0 0 -6800 0 -6800
-5395 0 -5395 0 0 6800 0 6800 175 0 175 0 2 -452z"/>
<path d="M8370 16790 l0 -290 4585 0 4585 0 -2 288 -3 287 -4582 3 -4583 2 0
-290z"/>
<path d="M8375 15337 c-3 -7 -4 -138 -3 -292 l3 -280 4580 0 4580 0 0 290 0
290 -4578 3 c-3683 2 -4579 0 -4582 -11z"/>
<path d="M8375 13607 c-3 -7 -4 -138 -3 -292 l3 -280 4580 0 4580 0 0 290 0
290 -4578 3 c-3683 2 -4579 0 -4582 -11z"/>
<path d="M8370 11590 l0 -290 4583 2 4582 3 3 288 2 287 -4585 0 -4585 0 0
-290z"/>
<path d="M8370 9860 l0 -290 4585 0 4585 0 0 290 0 290 -4585 0 -4585 0 0
-290z"/>
<path d="M8370 8130 l0 -290 4585 0 4585 0 -2 288 -3 287 -4582 3 -4583 2 0
-290z"/>
</g>
</svg>
