<?xml version="1.0" standalone="no"?>
<!DOCTYPE svg PUBLIC "-//W3C//DTD SVG 20010904//EN"
 "http://www.w3.org/TR/2001/REC-SVG-20010904/DTD/svg10.dtd">
<svg version="1.0" xmlns="http://www.w3.org/2000/svg"
 viewBox="0 0 2600.000000 2600.000000"
 preserveAspectRatio="xMidYMid meet">
<metadata>
Created by potrace 1.15, written by Peter Selinger 2001-2017
</metadata>
<g transform="translate(0.000000,2600.000000) scale(0.100000,-0.100000)"
fill="#000000" stroke="none">
<path d="M13070 22044 c-529 -48 -980 -191 -1405 -447 -802 -483 -1351 -1303
-1489 -2227 -84 -560 -12 -1191 212 -1864 l47 -140 1408 -371 1408 -372 1427
377 c785 207 1439 380 1454 383 25 7 31 19 73 150 93 287 165 598 207 895 19
133 22 202 23 457 0 297 -5 374 -42 575 -115 644 -431 1235 -905 1696 -496
482 -1110 779 -1803 870 -106 14 -523 26 -615 18z"/>
<path d="M4433 18345 c-227 -63 -383 -267 -383 -498 0 -38 133 -1331 296
-2874 163 -1542 294 -2806 292 -2809 -2 -2 -48 -15 -101 -29 -360 -93 -588
-316 -682 -665 -53 -200 -60 -277 -60 -665 0 -329 2 -371 23 -483 101 -562
402 -826 1000 -881 57 -5 106 -12 109 -14 2 -3 76 -684 163 -1513 87 -830 164
-1532 170 -1560 14 -68 59 -160 105 -214 49 -58 137 -124 200 -150 28 -11
1744 -464 3815 -1006 2646 -693 3786 -988 3835 -991 43 -3 99 1 145 11 134 27
7523 1965 7575 1986 140 57 255 188 299 340 8 30 85 721 171 1535 85 814 158
1499 161 1522 7 48 -15 41 194 63 476 52 779 295 889 715 75 281 89 811 32
1146 -79 458 -304 716 -720 825 -52 13 -96 26 -99 28 -2 2 130 1266 292 2808
163 1541 296 2835 296 2873 0 242 -173 457 -407 505 -140 29 102 90 -4510
-1128 l-4282 -1131 -4283 1131 c-4116 1087 -4287 1131 -4383 1134 -67 3 -117
-1 -152 -11z m4527 -2206 c2065 -545 3758 -993 3762 -995 5 -3 8 -2244 8
-4981 0 -3976 -3 -4974 -12 -4971 -7 3 -1462 384 -3233 848 -1771 463 -3223
846 -3227 849 -7 6 -288 2631 -288 2685 0 18 12 27 58 46 106 43 266 127 362
190 402 265 620 614 620 995 0 213 -60 391 -204 607 l-18 27 34 -9 c1079 -302
5534 -1538 5536 -1536 6 6 -31 4991 -37 4998 -8 9 -6722 1700 -6728 1695 -2
-2 86 -1031 195 -2286 108 -1254 195 -2281 192 -2281 -3 0 -51 15 -105 34 -55
18 -115 37 -132 41 -18 3 -35 11 -38 16 -4 6 -535 4995 -535 5026 0 2 8 2 18
-1 9 -3 1707 -452 3772 -997z m12370 996 c0 -4 -119 -1136 -265 -2516 -146
-1381 -265 -2513 -265 -2515 0 -2 -6 -4 -14 -4 -22 0 -202 -58 -300 -96 -118
-47 -279 -131 -388 -204 l-87 -58 -26 54 c-49 100 -166 174 -276 174 -71 0
-5018 -1282 -5075 -1315 -94 -55 -156 -156 -157 -259 -3 -117 49 -219 141
-277 58 -36 101 -49 172 -49 40 0 709 170 2440 619 1312 340 2386 617 2388
616 1 -1 -13 -35 -32 -76 -61 -129 -87 -238 -93 -384 -4 -106 -1 -148 15 -225
66 -318 276 -597 613 -816 98 -64 251 -143 352 -183 48 -20 57 -27 57 -48 0
-57 -281 -2678 -288 -2684 -4 -4 -1454 -385 -3222 -848 -1768 -463 -3223 -844
-3232 -847 -17 -5 -18 236 -18 4971 0 4168 2 4976 14 4981 14 5 7526 1992
7539 1993 4 1 7 -1 7 -4z"/>
<path d="M6939 10086 c-88 -31 -145 -84 -185 -171 -33 -71 -33 -180 0 -251 31
-67 83 -124 138 -152 25 -12 1138 -305 2475 -652 1979 -513 2443 -630 2494
-630 118 0 231 76 282 189 32 70 30 179 -4 252 -30 64 -82 120 -138 149 -22
10 -1133 303 -2471 650 -2570 666 -2499 649 -2591 616z"/>
<path d="M6843 8263 c-60 -21 -137 -94 -169 -160 -36 -73 -39 -183 -7 -255 27
-60 94 -132 146 -157 23 -11 1154 -308 2512 -661 2630 -682 2535 -659 2638
-624 64 22 140 92 174 162 23 47 28 70 28 132 0 123 -61 225 -168 279 -23 12
-1152 310 -2510 661 -2659 690 -2538 661 -2644 623z"/>
<path d="M20295 15815 c-250 -57 -5621 -1458 -5653 -1474 -143 -73 -207 -256
-140 -402 34 -75 76 -120 145 -155 50 -25 69 -29 138 -29 74 0 305 58 2884
728 1542 400 2818 734 2837 742 52 22 129 100 155 158 33 74 33 191 -1 262
-66 135 -215 205 -365 170z"/>
<path d="M20015 13843 c-11 -3 -1215 -301 -2676 -663 -1462 -362 -2674 -667
-2696 -678 -51 -27 -120 -102 -146 -160 -30 -69 -28 -171 5 -243 53 -116 142
-179 262 -186 67 -4 226 34 2755 661 2367 587 2689 669 2732 696 166 107 193
346 54 485 -52 52 -133 87 -209 91 -33 1 -70 0 -81 -3z"/>
<path d="M17110 9470 c-1334 -346 -2439 -636 -2457 -644 -46 -22 -110 -82
-139 -132 -79 -135 -34 -321 100 -411 57 -39 103 -53 176 -53 74 0 4905 1251
4966 1285 100 58 157 158 157 275 0 127 -63 227 -178 282 -115 54 59 94 -2625
-602z"/>
<path d="M17155 7641 c-1347 -350 -2467 -643 -2487 -650 -50 -17 -132 -92
-157 -144 -82 -169 -16 -354 153 -433 105 -49 -49 -84 2652 615 1358 352 2488
650 2511 662 107 55 168 156 168 279 0 122 -54 213 -163 277 -40 23 -59 28
-137 30 -90 2 -93 1 -2540 -636z"/>
</g>
</svg>
