<?xml version="1.0" standalone="no"?>
<!DOCTYPE svg PUBLIC "-//W3C//DTD SVG 20010904//EN"
 "http://www.w3.org/TR/2001/REC-SVG-20010904/DTD/svg10.dtd">
<svg version="1.0" xmlns="http://www.w3.org/2000/svg"
 viewBox="0 0 2600.000000 2600.000000"
 preserveAspectRatio="xMidYMid meet">
<metadata>
Created by potrace 1.15, written by Peter Selinger 2001-2017
</metadata>
<g transform="translate(0.000000,2600.000000) scale(0.100000,-0.100000)"
fill="#000000" stroke="none">
<path d="M8230 21704 c-30 -8 -77 -29 -105 -46 -30 -19 -584 -564 -1424 -1402
-1039 -1038 -1385 -1388 -1420 -1442 -32 -48 -52 -91 -60 -130 -9 -46 -11
-1478 -9 -6379 l3 -6320 21 -52 c52 -127 157 -218 283 -247 63 -14 465 -16
4155 -16 2248 0 4086 3 4086 8 0 4 -177 184 -393 400 l-392 392 -3483 0 -3482
0 0 5855 c0 3220 3 5855 8 5855 4 0 565 -29 1247 -66 1351 -73 1294 -72 1403
-17 72 36 154 127 182 200 12 32 24 87 27 123 2 36 -25 608 -61 1272 -36 664
-66 1212 -66 1217 0 8 1280 11 4270 11 l4270 0 0 -2216 0 -2217 68 7 c37 4
103 2 147 -4 215 -30 367 -108 514 -266 l71 -76 -2 2628 -3 2629 -23 58 c-44
108 -121 184 -233 230 l-54 22 -4745 2 c-4150 2 -4752 0 -4800 -13z m-210
-2068 c23 -417 39 -760 37 -762 -5 -6 -1521 76 -1527 82 -2 3 322 331 720 729
399 399 726 722 727 718 1 -5 21 -349 43 -767z"/>
<path d="M7582 17574 c-228 -61 -312 -340 -155 -514 25 -28 69 -63 97 -78 l51
-27 2394 -3 2393 -2 77 65 c89 75 235 155 341 185 102 30 306 38 406 17 148
-32 272 -95 396 -201 l77 -66 1033 2 1033 3 51 27 c145 76 211 249 154 401
-29 76 -79 130 -158 169 l-67 33 -4035 2 c-3476 1 -4042 0 -4088 -13z"/>
<path d="M12935 16598 c-61 -22 -120 -76 -541 -500 -374 -376 -434 -440 -450
-483 -24 -63 -24 -148 0 -195 10 -19 491 -509 1069 -1087 l1052 -1053 -60 0
c-109 -1 -111 -2 -593 -483 -491 -489 -496 -496 -496 -607 0 -87 15 -113 147
-247 l111 -113 -60 0 c-108 -1 -110 -2 -595 -487 -315 -314 -454 -459 -470
-492 -30 -59 -32 -159 -5 -211 10 -19 86 -104 169 -187 l151 -153 -59 0 c-109
-1 -111 -2 -593 -483 -490 -488 -496 -496 -497 -607 0 -53 5 -73 27 -110 41
-68 4403 -4425 4450 -4445 52 -21 137 -19 193 5 25 11 69 42 98 69 l53 50 240
-240 c181 -182 249 -243 281 -255 52 -20 141 -15 198 11 28 13 613 591 2002
1979 2150 2149 2013 2004 2013 2126 0 33 -8 71 -19 95 -12 25 -106 126 -254
274 l-236 234 39 44 c69 79 88 186 49 273 -15 33 -112 137 -373 400 l-353 355
-998 2810 c-548 1546 -1008 2833 -1020 2862 -44 98 -157 149 -265 121 -30 -8
-318 -136 -640 -284 -522 -239 -590 -274 -630 -314 -59 -59 -83 -110 -88 -190
-4 -64 2 -82 342 -1039 190 -536 346 -976 346 -980 0 -3 -795 789 -1767 1761
-1539 1538 -1773 1768 -1808 1777 -50 13 -120 13 -160 -1z"/>
<path d="M7582 15844 c-228 -61 -312 -340 -155 -514 25 -28 69 -63 97 -78 l51
-27 1557 -3 1557 -2 58 21 c79 29 162 113 186 188 36 111 13 236 -58 319 -22
25 -63 54 -103 74 l-67 33 -1535 2 c-1308 2 -1543 0 -1588 -13z"/>
<path d="M7583 14115 c-229 -62 -313 -340 -156 -515 25 -28 69 -63 97 -78 l51
-27 1557 -3 1557 -2 57 21 c119 45 194 148 202 279 8 138 -53 242 -176 302
l-67 33 -1535 2 c-1297 2 -1543 0 -1587 -12z"/>
<path d="M7564 12380 c-214 -69 -288 -342 -137 -510 25 -28 69 -63 97 -78 l51
-27 1365 0 1365 0 47 24 c193 95 243 343 102 500 -26 29 -69 62 -102 78 l-57
28 -1335 2 c-1297 2 -1337 2 -1396 -17z"/>
<path d="M7564 10650 c-123 -40 -216 -164 -217 -292 -1 -96 26 -161 92 -229
41 -41 72 -62 114 -78 l59 -21 1346 2 1347 3 47 24 c193 95 243 343 102 500
-26 29 -69 62 -102 78 l-57 28 -1335 2 c-1297 2 -1337 2 -1396 -17z"/>
<path d="M7564 8920 c-123 -40 -216 -164 -217 -292 -1 -96 26 -161 92 -229 41
-41 72 -62 114 -78 l59 -21 1346 2 1347 3 47 24 c26 12 66 42 89 65 156 154
110 415 -89 513 l-57 28 -1335 2 c-1297 2 -1337 2 -1396 -17z"/>
</g>
</svg>
