<?xml version="1.0" standalone="no"?>
<!DOCTYPE svg PUBLIC "-//W3C//DTD SVG 20010904//EN"
 "http://www.w3.org/TR/2001/REC-SVG-20010904/DTD/svg10.dtd">
<svg version="1.0" xmlns="http://www.w3.org/2000/svg"
 width="214.000000pt" height="119.000000pt" viewBox="0 0 214.000000 119.000000"
 preserveAspectRatio="xMidYMid meet">
<metadata>
Created by potrace 1.10, written by Peter Selinger 2001-2011
</metadata>
<g transform="translate(0.000000,119.000000) scale(0.100000,-0.100000)"
fill="#000000" stroke="none">
<path d="M1414 1122 c-183 -65 -309 -218 -336 -409 -54 -376 279 -677 627
-566 68 21 172 92 218 148 53 64 104 178 118 265 26 169 -40 347 -176 472 -16
16 -64 45 -104 66 -71 35 -80 37 -185 40 -87 2 -122 -2 -162 -16z m270 -7 c27
-8 69 -27 93 -41 43 -25 103 -95 103 -120 0 -7 -21 -24 -47 -39 l-47 -26 -76
26 c-41 15 -87 31 -102 37 -15 6 -31 23 -39 41 -7 18 -23 46 -36 64 l-23 32
26 20 c32 25 79 27 148 6z m-150 -77 c39 -70 41 -86 13 -116 -13 -15 -43 -54
-65 -87 l-41 -60 -73 -1 c-40 0 -84 -4 -98 -8 -23 -6 -28 -2 -58 59 -30 61
-34 65 -53 54 l-21 -11 18 34 c29 51 139 156 176 167 18 5 65 10 105 10 l72 1
25 -42z m409 -149 c30 -26 50 -53 57 -77 13 -47 13 -203 0 -236 -8 -22 -86
-85 -93 -75 -2 2 -15 22 -30 45 -15 22 -41 53 -57 69 -30 29 -30 29 -30 146
l0 118 43 24 c23 14 47 25 53 26 6 1 32 -17 57 -40z m-280 0 c34 -11 68 -25
75 -31 17 -15 17 -182 -1 -197 -20 -16 -140 -46 -158 -39 -17 6 -89 122 -89
141 0 17 90 147 101 147 5 0 38 -9 72 -21z m-476 -105 c17 -34 16 -38 -7 -105
-28 -83 -42 -105 -60 -94 -28 17 8 235 40 235 6 0 18 -16 27 -36z m308 -118
l56 -94 -22 -104 c-12 -56 -23 -108 -24 -114 -2 -7 -43 -14 -102 -19 l-98 -7
-43 48 c-24 26 -55 70 -69 97 l-25 50 28 81 c55 162 45 153 166 155 l77 1 56
-94z m539 -68 c-6 -61 -24 -105 -24 -60 0 28 20 122 26 122 3 0 2 -28 -2 -62z
m-219 5 c15 -16 40 -47 56 -69 l28 -42 -15 -58 c-8 -33 -23 -75 -32 -94 -22
-45 -93 -92 -166 -110 l-58 -14 -55 58 c-55 56 -55 57 -49 104 3 26 14 78 24
117 l17 69 105 32 c58 17 108 32 111 33 4 0 19 -11 34 -26z m-660 -76 c1 -1
13 -27 28 -57 14 -31 47 -77 72 -103 38 -40 46 -56 54 -105 5 -31 8 -58 7 -60
-2 -1 -33 25 -69 59 -53 48 -75 78 -106 142 -22 45 -42 95 -46 111 -6 28 -5
29 26 22 18 -3 33 -7 34 -9z m808 -89 c-9 -24 -25 -54 -36 -68 l-19 -25 7 45
c8 52 29 90 50 90 13 0 12 -6 -2 -42z m-432 -180 c22 -24 39 -46 39 -49 0 -3
-9 -14 -20 -24 -24 -22 -96 -16 -156 12 -34 16 -39 22 -39 53 0 32 3 36 35 41
85 15 100 11 141 -33z m343 13 c9 -15 -86 -79 -155 -105 -35 -13 -88 -26 -118
-28 l-54 -5 43 36 c26 21 65 41 95 49 27 7 70 24 95 37 47 25 85 31 94 16z"/>
<path d="M276 965 c-35 -31 -128 -75 -159 -75 -8 0 -12 -16 -12 -45 l0 -45 46
0 c86 0 84 8 84 -294 l0 -266 95 0 95 0 0 380 0 380 -55 0 c-48 -1 -60 -5 -94
-35z m99 -345 l0 -335 -45 0 -45 0 -5 240 c-6 268 -9 283 -76 307 -43 15 -43
24 0 42 18 8 57 30 86 50 90 62 85 78 85 -304z"/>
<path d="M650 555 l0 -65 125 0 125 0 0 65 0 65 -125 0 -125 0 0 -65z m194 19
c21 -8 21 -30 0 -38 -26 -10 -132 -7 -139 4 -17 27 5 40 64 40 33 0 66 -3 75
-6z"/>
</g>
</svg>
