<?xml version="1.0" standalone="no"?>
<!DOCTYPE svg PUBLIC "-//W3C//DTD SVG 20010904//EN"
 "http://www.w3.org/TR/2001/REC-SVG-20010904/DTD/svg10.dtd">
<svg version="1.0" xmlns="http://www.w3.org/2000/svg"
 viewBox="0 0 2600.000000 2600.000000"
 preserveAspectRatio="xMidYMid meet">
<metadata>
Created by potrace 1.15, written by Peter Selinger 2001-2017
</metadata>
<g transform="translate(0.000000,2600.000000) scale(0.100000,-0.100000)"
fill="#000000" stroke="none">
<path d="M9015 19919 c-665 -52 -1251 -514 -1459 -1151 -41 -126 -62 -224 -76
-355 -7 -67 -10 -2121 -8 -6463 l3 -6365 23 -109 c146 -688 640 -1187 1325
-1338 l102 -23 4720 0 4720 0 104 23 c331 73 614 224 844 450 250 246 409 539
479 885 l23 112 0 6430 c0 5326 -2 6442 -13 6500 -93 482 -339 862 -730 1126
-185 124 -411 216 -643 261 l-114 22 -4600 2 c-2530 1 -4645 -2 -4700 -7z
m9225 -629 c449 -47 806 -353 923 -794 l22 -81 0 -6400 0 -6400 -23 -85 c-103
-377 -379 -654 -760 -763 l-77 -22 -4648 -3 c-4512 -2 -4651 -2 -4740 17 -418
85 -748 427 -821 850 -15 86 -16 641 -16 6411 0 5509 2 6328 15 6401 80 459
463 820 920 868 117 12 9087 13 9205 1z"/>
<path d="M8660 12310 l0 -5800 3650 0 3650 0 2 -523 3 -523 320 219 c176 120
325 221 331 223 6 3 159 -96 340 -220 l329 -224 3 524 2 524 670 0 670 0 0
5800 0 5800 -4985 0 -4985 0 0 -5800z m9550 0 l0 -5380 -460 0 -460 0 0 324 0
324 56 42 c79 61 185 179 250 275 67 102 117 215 151 343 23 86 26 116 26 262
0 182 -17 272 -82 434 -195 487 -726 786 -1247 701 -244 -39 -459 -150 -635
-325 -340 -339 -435 -853 -236 -1274 25 -51 64 -122 88 -157 50 -74 202 -234
259 -274 l40 -28 0 -323 0 -324 -3440 0 -3440 0 0 5380 0 5380 4565 0 4565 0
0 -5380z"/>
<path d="M13460 16409 c-600 -60 -1139 -387 -1473 -894 -71 -109 -164 -297
-207 -420 -77 -221 -110 -419 -110 -653 0 -265 43 -497 136 -732 230 -579 737
-1031 1330 -1185 198 -52 265 -59 509 -59 254 -1 359 13 561 73 700 208 1235
792 1379 1504 97 480 14 977 -231 1395 -167 284 -424 540 -711 709 -350 206
-784 302 -1183 262z m422 -538 c108 -19 278 -66 278 -77 0 -3 -100 -137 -222
-297 -122 -161 -222 -299 -222 -307 0 -28 265 -489 293 -508 14 -11 136 -76
269 -147 l244 -127 -6 -57 c-3 -31 -11 -164 -17 -296 l-11 -240 -109 -110
-108 -110 199 -89 c110 -49 200 -93 200 -97 0 -5 -31 -35 -70 -68 -194 -167
-431 -283 -672 -330 -114 -22 -327 -37 -344 -24 -6 4 -21 85 -34 178 -12 94
-28 175 -34 181 -12 12 -341 124 -365 124 -11 0 -202 -112 -337 -197 -20 -13
-28 -8 -109 59 -48 40 -123 116 -167 168 -76 90 -178 245 -178 269 0 6 37 68
82 138 l82 128 16 266 15 265 95 145 95 144 29 163 c15 90 26 166 23 169 -3 3
-94 -2 -202 -12 -108 -9 -199 -15 -201 -12 -17 17 151 231 263 337 196 183
431 305 689 359 124 26 141 27 296 29 86 1 162 -4 240 -17z"/>
<path d="M10720 11650 l0 -180 2928 2 2927 3 3 178 2 177 -2930 0 -2930 0 0
-180z"/>
<path d="M10720 10770 l0 -180 2928 2 2927 3 3 178 2 177 -2930 0 -2930 0 0
-180z"/>
<path d="M13010 6175 c-425 -94 -579 -613 -271 -915 39 -39 93 -78 131 -98
120 -60 144 -62 781 -62 541 0 580 1 653 20 107 27 169 63 252 145 81 80 126
162 149 270 18 88 18 132 0 218 -39 187 -173 338 -359 406 l-71 26 -600 2
c-488 2 -612 -1 -665 -12z m1227 -429 c81 -49 74 -169 -12 -210 -48 -23 -1110
-24 -1155 -1 -99 51 -91 193 13 224 19 6 263 9 577 8 521 -2 546 -3 577 -21z"/>
</g>
</svg>
